<?xml version="1.0" encoding="UTF-8"?>
<!DOCTYPE svg PUBLIC "-//W3C//DTD SVG 1.1//EN" "http://www.w3.org/Graphics/SVG/1.1/DTD/svg11.dtd">
<svg xmlns="http://www.w3.org/2000/svg" version="1.1" width="256px" height="256px" style="shape-rendering:geometricPrecision; text-rendering:geometricPrecision; image-rendering:optimizeQuality; fill-rule:evenodd; clip-rule:evenodd" xmlns:xlink="http://www.w3.org/1999/xlink">
<g><path style="opacity:0.978" fill="#bbad78" d="M 80.5,12.5 C 101.503,12.3334 122.503,12.5 143.5,13C 154.821,31.1469 165.488,49.6469 175.5,68.5C 174.833,68.5 174.167,68.5 173.5,68.5C 153.167,68.5 132.833,68.5 112.5,68.5C 102.53,52.3374 92.6966,36.0041 83,19.5C 81.5886,17.3496 80.7553,15.0163 80.5,12.5 Z"/></g>
<g><path style="opacity:0.973" fill="#5a676d" d="M 80.5,12.5 C 80.7553,15.0163 81.5886,17.3496 83,19.5C 92.6966,36.0041 102.53,52.3374 112.5,68.5C 102.167,86.5 91.8333,104.5 81.5,122.5C 80.8333,122.833 80.1667,123.167 79.5,123.5C 68.8609,105.184 58.1942,86.8505 47.5,68.5C 58.0222,49.4409 69.0222,30.7742 80.5,12.5 Z"/></g>
<g><path style="opacity:0.972" fill="#5a676d" d="M 173.5,68.5 C 174.167,68.5 174.833,68.5 175.5,68.5C 186.392,86.6065 197.059,104.94 207.5,123.5C 197.059,142.06 186.392,160.393 175.5,178.5C 164.833,159.833 154.167,141.167 143.5,122.5C 153.5,104.5 163.5,86.5 173.5,68.5 Z"/></g>
<g><path style="opacity:0.973" fill="#bbad78" d="M 81.5,122.5 C 102.167,122.5 122.833,122.5 143.5,122.5C 154.167,141.167 164.833,159.833 175.5,178.5C 153.823,178.833 132.156,178.5 110.5,177.5C 100.155,159.473 89.8215,141.473 79.5,123.5C 80.1667,123.167 80.8333,122.833 81.5,122.5 Z"/></g>
<g><path style="opacity:0.911" fill="#59676c" d="M 3.5,206.5 C 5.5,206.5 7.5,206.5 9.5,206.5C 9.5,211.167 9.5,215.833 9.5,220.5C 14.5,220.5 19.5,220.5 24.5,220.5C 24.5,215.833 24.5,211.167 24.5,206.5C 26.5,206.5 28.5,206.5 30.5,206.5C 30.5,218.167 30.5,229.833 30.5,241.5C 28.5,241.5 26.5,241.5 24.5,241.5C 24.5,236.5 24.5,231.5 24.5,226.5C 19.5,226.5 14.5,226.5 9.5,226.5C 9.5,231.5 9.5,236.5 9.5,241.5C 7.5,241.5 5.5,241.5 3.5,241.5C 3.5,229.833 3.5,218.167 3.5,206.5 Z"/></g>
<g><path style="opacity:0.798" fill="#59676c" d="M 39.5,206.5 C 41.8333,206.5 44.1667,206.5 46.5,206.5C 46.5,218.167 46.5,229.833 46.5,241.5C 44.1667,241.5 41.8333,241.5 39.5,241.5C 39.5,229.833 39.5,218.167 39.5,206.5 Z"/></g>
<g><path style="opacity:0.865" fill="#59676c" d="M 55.5,206.5 C 61.5933,206.139 67.5933,206.639 73.5,208C 78.5681,210.983 79.7348,215.149 77,220.5C 76.0975,221.701 74.9308,222.535 73.5,223C 75.286,223.785 76.786,224.951 78,226.5C 80.2196,233.437 78.053,238.27 71.5,241C 66.1771,241.499 60.8437,241.666 55.5,241.5C 55.5,229.833 55.5,218.167 55.5,206.5 Z M 61.5,212.5 C 64.1873,212.336 66.854,212.503 69.5,213C 72.1667,215.333 72.1667,217.667 69.5,220C 66.9373,221.079 64.2706,221.579 61.5,221.5C 61.5,218.5 61.5,215.5 61.5,212.5 Z M 61.5,226.5 C 66.4185,225.372 70.0852,226.872 72.5,231C 70.5374,235.315 67.204,236.981 62.5,236C 61.5495,232.943 61.2161,229.777 61.5,226.5 Z"/></g>
<g><path style="opacity:0.819" fill="#59676c" d="M 85.5,206.5 C 91.8333,206.5 98.1667,206.5 104.5,206.5C 104.5,208.5 104.5,210.5 104.5,212.5C 100.5,212.5 96.5,212.5 92.5,212.5C 92.5,215.5 92.5,218.5 92.5,221.5C 96.5,221.5 100.5,221.5 104.5,221.5C 104.5,223.167 104.5,224.833 104.5,226.5C 100.5,226.5 96.5,226.5 92.5,226.5C 92.5,229.5 92.5,232.5 92.5,235.5C 96.5,235.5 100.5,235.5 104.5,235.5C 104.5,237.5 104.5,239.5 104.5,241.5C 98.1667,241.5 91.8333,241.5 85.5,241.5C 85.5,229.833 85.5,218.167 85.5,206.5 Z"/></g>
<g><path style="opacity:0.884" fill="#59676c" d="M 112.5,206.5 C 118.245,206.211 123.912,206.711 129.5,208C 134.459,212.984 134.793,218.318 130.5,224C 128.779,224.739 127.113,225.573 125.5,226.5C 129.288,231.244 132.955,236.077 136.5,241C 133.446,241.821 130.446,241.655 127.5,240.5C 124.472,236.639 121.639,232.639 119,228.5C 118.501,232.821 118.334,237.154 118.5,241.5C 116.5,241.5 114.5,241.5 112.5,241.5C 112.5,229.833 112.5,218.167 112.5,206.5 Z M 118.5,212.5 C 122.585,211.659 125.585,212.992 127.5,216.5C 126.093,220.915 123.093,222.582 118.5,221.5C 118.5,218.5 118.5,215.5 118.5,212.5 Z"/></g>
<g><path style="opacity:0.823" fill="#bbae78" d="M 141.5,206.5 C 145.007,205.994 148.174,206.66 151,208.5C 155,215.167 159,221.833 163,228.5C 163.5,221.174 163.666,213.841 163.5,206.5C 165.833,206.5 168.167,206.5 170.5,206.5C 170.5,218.167 170.5,229.833 170.5,241.5C 167.428,241.817 164.428,241.484 161.5,240.5C 156.801,232.963 152.301,225.297 148,217.5C 148.322,225.463 148.488,233.463 148.5,241.5C 146.167,241.5 143.833,241.5 141.5,241.5C 141.5,229.833 141.5,218.167 141.5,206.5 Z"/></g>
<g><path style="opacity:0.842" fill="#bbae78" d="M 186.5,206.5 C 189.119,206.232 191.619,206.565 194,207.5C 198.141,218.757 201.974,230.09 205.5,241.5C 203.167,241.5 200.833,241.5 198.5,241.5C 198.541,235.792 195.708,233.459 190,234.5C 184.292,233.459 181.459,235.792 181.5,241.5C 179.076,241.808 176.743,241.474 174.5,240.5C 178.705,229.219 182.705,217.885 186.5,206.5 Z M 189.5,216.5 C 191.438,220.125 193.105,223.959 194.5,228C 191.5,228.667 188.5,228.667 185.5,228C 187.135,224.261 188.469,220.427 189.5,216.5 Z"/></g>
<g><path style="opacity:0.8" fill="#bbae78" d="M 203.5,206.5 C 211.833,206.5 220.167,206.5 228.5,206.5C 228.5,208.5 228.5,210.5 228.5,212.5C 225.5,212.5 222.5,212.5 219.5,212.5C 219.5,222.167 219.5,231.833 219.5,241.5C 217.167,241.5 214.833,241.5 212.5,241.5C 212.5,231.833 212.5,222.167 212.5,212.5C 209.5,212.5 206.5,212.5 203.5,212.5C 203.5,210.5 203.5,208.5 203.5,206.5 Z"/></g>
<g><path style="opacity:0.868" fill="#bbae78" d="M 233.5,206.5 C 239.5,206.5 245.5,206.5 251.5,206.5C 251.5,208.5 251.5,210.5 251.5,212.5C 247.5,212.5 243.5,212.5 239.5,212.5C 239.5,215.5 239.5,218.5 239.5,221.5C 243.5,221.5 247.5,221.5 251.5,221.5C 251.5,223.167 251.5,224.833 251.5,226.5C 247.5,226.5 243.5,226.5 239.5,226.5C 239.5,229.5 239.5,232.5 239.5,235.5C 243.5,235.5 247.5,235.5 251.5,235.5C 251.5,237.5 251.5,239.5 251.5,241.5C 245.5,241.5 239.5,241.5 233.5,241.5C 233.5,229.833 233.5,218.167 233.5,206.5 Z"/></g>
</svg>
