<?xml version="1.0" encoding="UTF-8"?>
<!DOCTYPE svg PUBLIC "-//W3C//DTD SVG 1.1//EN" "http://www.w3.org/Graphics/SVG/1.1/DTD/svg11.dtd">
<svg xmlns="http://www.w3.org/2000/svg" version="1.1" width="500px" height="400px" style="shape-rendering:geometricPrecision; text-rendering:geometricPrecision; image-rendering:optimizeQuality; fill-rule:evenodd; clip-rule:evenodd" xmlns:xlink="http://www.w3.org/1999/xlink">
<g><path style="opacity:0.963" fill="#6392a0" d="M 142.5,-0.5 C 193.5,-0.5 244.5,-0.5 295.5,-0.5C 315.584,30.0013 335.418,60.668 355,91.5C 355.993,190.556 355.66,289.556 354,388.5C 352.558,392.275 350.058,395.108 346.5,397C 279.5,397.667 212.5,397.667 145.5,397C 138.549,393.38 135.216,387.547 135.5,379.5C 136.833,319.17 137.5,258.504 137.5,197.5C 137.5,136.496 136.833,75.8296 135.5,15.5C 135.665,9.17427 137.998,3.84093 142.5,-0.5 Z M 151.5,16.5 C 195.167,16.5 238.833,16.5 282.5,16.5C 282.333,42.8354 282.5,69.1688 283,95.5C 283.101,98.8732 284.601,101.373 287.5,103C 305.164,103.5 322.83,103.667 340.5,103.5C 340.5,156.5 340.5,209.5 340.5,262.5C 277.5,262.5 214.5,262.5 151.5,262.5C 151.5,180.5 151.5,98.5 151.5,16.5 Z M 242.5,285.5 C 249.469,284.721 255.969,286.054 262,289.5C 261.992,293.883 261.326,298.216 260,302.5C 252.569,297.295 245.236,297.295 238,302.5C 235.651,307.688 236.151,312.522 239.5,317C 247.799,321.401 255.299,326.901 262,333.5C 266.862,344.01 266.529,354.343 261,364.5C 249.908,375.132 237.575,376.799 224,369.5C 224.263,365.17 224.93,360.837 226,356.5C 234.288,361.245 242.621,361.578 251,357.5C 255.16,350.248 253.993,344.081 247.5,339C 241.655,336.05 236.155,332.55 231,328.5C 222.744,317.085 222.411,305.419 230,293.5C 233.671,289.923 237.838,287.256 242.5,285.5 Z M 288.5,286.5 C 297.112,285.795 305.445,286.962 313.5,290C 320.51,296.02 323.844,303.686 323.5,313C 322.603,334.057 311.603,343.557 290.5,341.5C 290.5,351.833 290.5,362.167 290.5,372.5C 286.833,372.5 283.167,372.5 279.5,372.5C 279.167,344.492 279.5,316.492 280.5,288.5C 283.311,287.92 285.977,287.254 288.5,286.5 Z M 198.5,287.5 C 202.167,287.5 205.833,287.5 209.5,287.5C 209.938,311.205 209.438,334.872 208,358.5C 206.819,362.363 204.986,365.863 202.5,369C 196.995,373.404 190.995,375.071 184.5,374C 182.22,373.767 180.22,372.934 178.5,371.5C 179.167,368.167 179.833,364.833 180.5,361.5C 184.122,360.675 187.789,360.175 191.5,360C 194.489,358.345 196.323,355.845 197,352.5C 198.444,330.878 198.944,309.212 198.5,287.5 Z"/></g>
<g><path style="opacity:0.76" fill="#dc0f02" d="M 250.5,45.5 C 251.978,45.238 253.311,45.5713 254.5,46.5C 260.203,61.4784 258.036,75.1451 248,87.5C 241.575,93.9208 235.909,100.921 231,108.5C 230.134,121.34 232.301,133.673 237.5,145.5C 237.167,146.5 236.5,147.167 235.5,147.5C 225.177,138.357 219.177,126.857 217.5,113C 219.116,102.937 223.282,94.1033 230,86.5C 238.114,80.7179 244.448,73.3846 249,64.5C 250.317,58.2425 250.817,51.9092 250.5,45.5 Z"/></g>
<g><path style="opacity:0.74" fill="#dc0f02" d="M 262.5,84.5 C 263.978,84.238 265.311,84.5713 266.5,85.5C 261.477,91.3554 256.644,97.3554 252,103.5C 250.3,106.467 249.133,109.633 248.5,113C 250.528,118.888 252.694,124.721 255,130.5C 256.373,138.881 254.206,146.214 248.5,152.5C 247.15,153.95 245.484,154.617 243.5,154.5C 243.844,150.456 244.51,146.456 245.5,142.5C 243.029,136.884 240.529,131.218 238,125.5C 234.739,115.131 236.906,106.131 244.5,98.5C 250.168,93.3413 256.168,88.6747 262.5,84.5 Z"/></g>
<g><path style="opacity:0.738" fill="#0067c0" d="M 274.5,145.5 C 283.561,143.046 289.727,146.046 293,154.5C 295.343,163.473 292.843,170.973 285.5,177C 280.959,180.351 275.959,182.851 270.5,184.5C 269,184.547 268,183.881 267.5,182.5C 274.492,176.514 279.492,169.181 282.5,160.5C 282.03,158.226 281.03,156.226 279.5,154.5C 275.916,153.318 272.582,151.652 269.5,149.5C 270.707,147.459 272.374,146.126 274.5,145.5 Z"/></g>
<g><path style="opacity:0.715" fill="#0068bf" d="M 217.5,146.5 C 218.833,146.5 220.167,146.5 221.5,146.5C 221.762,147.978 221.429,149.311 220.5,150.5C 217.603,151.98 214.603,153.314 211.5,154.5C 210.289,155.274 210.289,156.107 211.5,157C 229.293,158.9 246.959,158.067 264.5,154.5C 266.067,154.477 267.4,154.977 268.5,156C 266.787,157.378 265.453,159.045 264.5,161C 252.909,166.913 240.576,169.413 227.5,168.5C 218.017,169.466 209.017,167.966 200.5,164C 195.274,159.585 195.274,155.251 200.5,151C 206.164,149.002 211.83,147.502 217.5,146.5 Z"/></g>
<g><path style="opacity:0.707" fill="#0068bf" d="M 214.5,169.5 C 216.71,170.455 217.043,171.955 215.5,174C 217.392,174.973 219.392,175.64 221.5,176C 235.192,176.697 248.692,175.53 262,172.5C 263.472,175.463 262.639,177.963 259.5,180C 245.666,186.549 231.333,188.216 216.5,185C 204.217,180.759 203.551,175.593 214.5,169.5 Z"/></g>
<g><path style="opacity:0.71" fill="#0068bf" d="M 216.5,189.5 C 217.833,189.5 219.167,189.5 220.5,189.5C 220.5,190.833 220.5,192.167 220.5,193.5C 233.955,193.783 247.289,192.95 260.5,191C 261.451,191.718 261.617,192.551 261,193.5C 258.833,195.667 256.667,197.833 254.5,200C 242.812,204.054 230.812,205.388 218.5,204C 215.751,202.877 213.251,201.377 211,199.5C 209.67,194.349 211.503,191.015 216.5,189.5 Z"/></g>
<g><path style="opacity:0.692" fill="#0168bf" d="M 201.5,202.5 C 203.527,202.338 205.527,202.505 207.5,203C 208.337,204.011 208.67,205.178 208.5,206.5C 205.013,206.905 201.68,207.905 198.5,209.5C 197.429,211.325 198.096,212.492 200.5,213C 227.246,219.76 253.579,218.427 279.5,209C 280.38,207.644 280.714,206.144 280.5,204.5C 285.441,205.8 286.608,208.8 284,213.5C 275.632,218.958 266.465,222.458 256.5,224C 237.835,225.98 219.168,225.98 200.5,224C 196.783,222.82 193.116,221.487 189.5,220C 183.827,214.75 184.16,210.084 190.5,206C 194.427,205.276 198.094,204.109 201.5,202.5 Z"/></g>
<g><path style="opacity:0.554" fill="#0068bf" d="M 288.5,214.5 C 289.649,214.791 290.316,215.624 290.5,217C 289.759,222.074 287.092,225.74 282.5,228C 279.382,229.059 276.382,230.392 273.5,232C 263.343,233.266 253.177,234.432 243,235.5C 232.494,234.393 221.994,233.227 211.5,232C 209.602,231.1 207.936,229.934 206.5,228.5C 207.348,227.009 208.681,226.342 210.5,226.5C 229.174,227.873 247.841,227.706 266.5,226C 275.164,224.503 282.497,220.67 288.5,214.5 Z"/></g>
<g><path style="opacity:0.081" fill="#62899d" d="M 135.5,15.5 C 136.833,75.8296 137.5,136.496 137.5,197.5C 137.5,258.504 136.833,319.17 135.5,379.5C 135.5,258.167 135.5,136.833 135.5,15.5 Z"/></g>
<g><path style="opacity:0.921" fill="#6392a0" d="M 291.5,298.5 C 308.363,296.533 314.863,303.867 311,320.5C 306.459,328.804 299.792,331.138 291,327.5C 290.218,317.786 290.385,308.12 291.5,298.5 Z"/></g>
</svg>
