<?xml version="1.0" encoding="UTF-8"?>
<!DOCTYPE svg PUBLIC "-//W3C//DTD SVG 1.1//EN" "http://www.w3.org/Graphics/SVG/1.1/DTD/svg11.dtd">
<svg xmlns="http://www.w3.org/2000/svg" version="1.1" width="240px" height="240px" style="shape-rendering:geometricPrecision; text-rendering:geometricPrecision; image-rendering:optimizeQuality; fill-rule:evenodd; clip-rule:evenodd" xmlns:xlink="http://www.w3.org/1999/xlink">
<g><path style="opacity:0.973" fill="#35718a" d="M 140.5,24.5 C 135.01,31.7568 127.677,36.2568 118.5,38C 85.7531,45.6274 53.0864,45.2941 20.5,37C 12.8577,35.0269 6.85773,30.8602 2.5,24.5C 2.88438,21.2307 4.21772,18.3974 6.5,16C 18.5465,9.06904 31.5465,5.06904 45.5,4C 70.0736,1.17501 94.4069,2.50835 118.5,8C 125.002,9.58536 131.002,12.252 136.5,16C 138.782,18.3974 140.116,21.2307 140.5,24.5 Z"/></g>
<g><path style="opacity:0.985" fill="#4184a8" d="M 2.5,24.5 C 6.85773,30.8602 12.8577,35.0269 20.5,37C 53.0864,45.2941 85.7531,45.6274 118.5,38C 127.677,36.2568 135.01,31.7568 140.5,24.5C 140.5,35.1667 140.5,45.8333 140.5,56.5C 139.094,56.9731 138.427,57.9731 138.5,59.5C 135.883,62.147 132.883,64.3137 129.5,66C 121.804,69.337 113.804,71.5037 105.5,72.5C 101.316,72.8509 97.3164,73.5176 93.5,74.5C 67.6888,77.5285 42.3555,75.3618 17.5,68C 12.0333,66.2778 7.70001,63.1111 4.5,58.5C 4.16667,57.5 3.5,56.8333 2.5,56.5C 2.5,45.8333 2.5,35.1667 2.5,24.5 Z"/></g>
<g><path style="opacity:0.204" fill="#5ec296" d="M 2.5,56.5 C 3.5,56.8333 4.16667,57.5 4.5,58.5C 3.51388,62.97 3.18054,67.6367 3.5,72.5C 3.16667,72.5 2.83333,72.5 2.5,72.5C 2.5,67.1667 2.5,61.8333 2.5,56.5 Z"/></g>
<g><path style="opacity:0.184" fill="#61c695" d="M 140.5,56.5 C 140.5,61.8333 140.5,67.1667 140.5,72.5C 140.167,72.5 139.833,72.5 139.5,72.5C 139.818,67.9677 139.485,63.6344 138.5,59.5C 138.427,57.9731 139.094,56.9731 140.5,56.5 Z"/></g>
<g><path style="opacity:1" fill="#6cdd8e" d="M 4.5,58.5 C 7.70001,63.1111 12.0333,66.2778 17.5,68C 42.3555,75.3618 67.6888,77.5285 93.5,74.5C 97.8171,74.9166 101.817,74.2499 105.5,72.5C 113.804,71.5037 121.804,69.337 129.5,66C 132.883,64.3137 135.883,62.147 138.5,59.5C 139.485,63.6344 139.818,67.9677 139.5,72.5C 137.737,76.0988 135.07,78.9322 131.5,81C 111.149,89.1464 89.9824,92.6464 68,91.5C 47.5381,92.3409 28.0381,88.5076 9.5,80C 6.88229,77.8943 4.88229,75.3943 3.5,72.5C 3.18054,67.6367 3.51388,62.97 4.5,58.5 Z"/></g>
<g><path style="opacity:0.987" fill="#4184a8" d="M 2.5,72.5 C 2.83333,72.5 3.16667,72.5 3.5,72.5C 4.88229,75.3943 6.88229,77.8943 9.5,80C 28.0381,88.5076 47.5381,92.3409 68,91.5C 89.9824,92.6464 111.149,89.1464 131.5,81C 135.07,78.9322 137.737,76.0988 139.5,72.5C 139.833,72.5 140.167,72.5 140.5,72.5C 140.5,79.8333 140.5,87.1667 140.5,94.5C 126.529,100.147 114.863,108.814 105.5,120.5C 104.209,120.263 103.209,120.596 102.5,121.5C 82.8568,123.878 63.1901,124.045 43.5,122C 31.5098,120.837 20.1765,117.503 9.5,112C 7.62658,110.296 5.95991,108.463 4.5,106.5C 4.16667,105.5 3.5,104.833 2.5,104.5C 2.5,93.8333 2.5,83.1667 2.5,72.5 Z"/></g>
<g><path style="opacity:1" fill="#5dbd98" d="M 105.5,72.5 C 101.817,74.2499 97.8171,74.9166 93.5,74.5C 97.3164,73.5176 101.316,72.8509 105.5,72.5 Z"/></g>
<g><path style="opacity:0.979" fill="#36718a" d="M 91.5,171.5 C 90.6712,160.203 92.0045,149.203 95.5,138.5C 97.9793,132.875 100.979,127.542 104.5,122.5C 105.338,122.158 105.672,121.492 105.5,120.5C 114.863,108.814 126.529,100.147 140.5,94.5C 173.063,85.4108 200.229,93.7441 222,119.5C 239.698,146.003 241.031,173.336 226,201.5C 203.17,233.332 173.003,243.165 135.5,231C 109.542,219.539 94.8753,199.705 91.5,171.5 Z"/></g>
<g><path style="opacity:0.204" fill="#5ec296" d="M 2.5,104.5 C 3.5,104.833 4.16667,105.5 4.5,106.5C 3.51388,110.97 3.18054,115.637 3.5,120.5C 3.16667,120.5 2.83333,120.5 2.5,120.5C 2.5,115.167 2.5,109.833 2.5,104.5 Z"/></g>
<g><path style="opacity:1" fill="#6cdd8e" d="M 4.5,106.5 C 5.95991,108.463 7.62658,110.296 9.5,112C 20.1765,117.503 31.5098,120.837 43.5,122C 63.1901,124.045 82.8568,123.878 102.5,121.5C 103.492,121.328 104.158,121.662 104.5,122.5C 100.979,127.542 97.9793,132.875 95.5,138.5C 74.0421,140.492 52.7088,139.658 31.5,136C 23.7296,134.521 16.3963,131.854 9.5,128C 6.88229,125.894 4.88229,123.394 3.5,120.5C 3.18054,115.637 3.51388,110.97 4.5,106.5 Z"/></g>
<g><path style="opacity:1" fill="#4fa398" d="M 102.5,121.5 C 103.209,120.596 104.209,120.263 105.5,120.5C 105.672,121.492 105.338,122.158 104.5,122.5C 104.158,121.662 103.492,121.328 102.5,121.5 Z"/></g>
<g><path style="opacity:0.965" fill="#4184a8" d="M 2.5,120.5 C 2.83333,120.5 3.16667,120.5 3.5,120.5C 4.88229,123.394 6.88229,125.894 9.5,128C 16.3963,131.854 23.7296,134.521 31.5,136C 52.7088,139.658 74.0421,140.492 95.5,138.5C 92.0045,149.203 90.6712,160.203 91.5,171.5C 68.9267,173.591 46.5934,172.091 24.5,167C 17.2483,165.29 10.7483,162.124 5,157.5C 4.33333,156.167 3.66667,154.833 3,153.5C 2.50015,142.505 2.33349,131.505 2.5,120.5 Z"/></g>
<g><path style="opacity:1" fill="#f6f9fa" d="M 122.5,135.5 C 131.799,134.566 138.632,138.233 143,146.5C 143.667,148.833 143.667,151.167 143,153.5C 140.667,156.167 138.333,156.167 136,153.5C 135.737,145.897 131.903,142.731 124.5,144C 118.741,147.892 118.074,152.559 122.5,158C 127.883,158.625 132.883,160.291 137.5,163C 144.432,169.822 145.266,177.322 140,185.5C 133.749,192.011 126.582,193.177 118.5,189C 113.654,184.825 111.487,179.658 112,173.5C 114.333,170.833 116.667,170.833 119,173.5C 119.263,181.103 123.097,184.269 130.5,183C 136.259,179.108 136.926,174.441 132.5,169C 115.224,167.561 109.057,158.728 114,142.5C 116.441,139.546 119.275,137.213 122.5,135.5 Z"/></g>
<g><path style="opacity:1" fill="#f7f9fa" d="M 162.5,135.5 C 171.799,134.566 178.632,138.233 183,146.5C 183.667,157.167 183.667,167.833 183,178.5C 182.5,180 182,181.5 181.5,183C 184.025,185.727 184.025,188.393 181.5,191C 179.062,191.682 176.895,191.182 175,189.5C 164.586,193.8 156.919,190.8 152,180.5C 151.333,169.167 151.333,157.833 152,146.5C 154.357,141.645 157.857,137.979 162.5,135.5 Z"/></g>
<g><path style="opacity:1" fill="#f7f9fa" d="M 199.5,138.5 C 199.5,153.5 199.5,168.5 199.5,183.5C 203.833,183.5 208.167,183.5 212.5,183.5C 215.973,185.563 216.306,188.063 213.5,191C 206.833,191.667 200.167,191.667 193.5,191C 193,190.5 192.5,190 192,189.5C 191.333,172.167 191.333,154.833 192,137.5C 194.937,134.694 197.437,135.027 199.5,138.5 Z"/></g>
<g><path style="opacity:1" fill="#51859a" d="M 199.5,138.5 C 200.496,152.99 200.829,167.657 200.5,182.5C 204.702,182.183 208.702,182.517 212.5,183.5C 208.167,183.5 203.833,183.5 199.5,183.5C 199.5,168.5 199.5,153.5 199.5,138.5 Z"/></g>
<g><path style="opacity:1" fill="#3b748d" d="M 164.5,143.5 C 169.28,142.641 172.78,144.308 175,148.5C 175.667,156.833 175.667,165.167 175,173.5C 170,170.167 167.667,171.5 168,177.5C 171.571,180.489 171.237,182.489 167,183.5C 163.599,183.302 161.266,181.635 160,178.5C 159.333,168.5 159.333,158.5 160,148.5C 161.025,146.313 162.525,144.646 164.5,143.5 Z"/></g>
</svg>
